<svg width="26" height="26" viewBox="0 0 26 26" fill="none" xmlns="http://www.w3.org/2000/svg">
<path d="M13 0.5C6.1 0.5 0.5 6.1 0.5 13C0.5 19.9 6.1 25.5 13 25.5C19.9 25.5 25.5 19.9 25.5 13C25.5 6.1 19.9 0.5 13 0.5ZM13 4.25C15.075 4.25 16.75 5.925 16.75 8C16.75 10.075 15.075 11.75 13 11.75C10.925 11.75 9.25 10.075 9.25 8C9.25 5.925 10.925 4.25 13 4.25ZM13 22C9.875 22 7.1125 20.4 5.5 17.975C5.5375 15.4875 10.5 14.125 13 14.125C15.4875 14.125 20.4625 15.4875 20.5 17.975C18.8875 20.4 16.125 22 13 22Z" fill="#202729"/>
</svg>
