<svg width="24" height="24" viewBox="0 0 24 24" fill="none" xmlns="http://www.w3.org/2000/svg">
<path d="M20.9246 13.175C20.9746 12.8 20.9997 12.4125 20.9997 12C20.9997 11.6 20.9746 11.2 20.9121 10.825L23.4496 8.85C23.6747 8.675 23.7372 8.3375 23.5997 8.0875L21.1996 3.9375C21.0497 3.6625 20.7372 3.575 20.4622 3.6625L17.4746 4.8625C16.8496 4.3875 16.1871 3.9875 15.4496 3.6875L14.9996 0.5125C14.9496 0.2125 14.6996 0 14.3996 0H9.59965C9.29965 0 9.06215 0.2125 9.01215 0.5125L8.56215 3.6875C7.82465 3.9875 7.14965 4.4 6.53715 4.8625L3.54965 3.6625C3.27465 3.5625 2.96215 3.6625 2.81215 3.9375L0.424649 8.0875C0.274649 8.35 0.324649 8.675 0.574649 8.85L3.11215 10.825C3.04965 11.2 2.99965 11.6125 2.99965 12C2.99965 12.3875 3.02465 12.8 3.08715 13.175L0.549649 15.15C0.324649 15.325 0.262149 15.6625 0.399649 15.9125L2.79965 20.0625C2.94965 20.3375 3.26215 20.425 3.53715 20.3375L6.52465 19.1375C7.14965 19.6125 7.81215 20.0125 8.54965 20.3125L8.99965 23.4875C9.06215 23.7875 9.29965 24 9.59965 24H14.3996C14.6996 24 14.9496 23.7875 14.9871 23.4875L15.4371 20.3125C16.1746 20.0125 16.8496 19.6125 17.4622 19.1375L20.4496 20.3375C20.7246 20.4375 21.0372 20.3375 21.1872 20.0625L23.5872 15.9125C23.7372 15.6375 23.6747 15.325 23.4371 15.15L20.9246 13.175ZM11.9996 16.5C9.52465 16.5 7.49965 14.475 7.49965 12C7.49965 9.525 9.52465 7.5 11.9996 7.5C14.4746 7.5 16.4996 9.525 16.4996 12C16.4996 14.475 14.4746 16.5 11.9996 16.5Z" fill="#202729"/>
</svg>
